:SAMPLES-PER-SECOND 30
:FULLY-SPECIFIED
:DEGREES
1567
root  -45.1167 39.0833 25.8692 -173.501 -51.7894 169.848
RightUpLeg  -24.2447 -12.0568 -11.873
RightLeg  46.4411 1.2222 1.06421
RightFoot  -6.74688 -0.31001 6.57177
RightToes  -1.33073e-015 0 -3.6325e-017
Spine  11.2602 -2.90285 -8.31243
Spine1  15.0258 -2.72328 -4.07078
HEad  -9.3685 22.9177 -11.4442
LeftShoulder1  0.838889 1.06229 -28.259
LeftArm  -2.35393 -18.5298 -45.4228
LeftForeArm  0.535055 -59.8113 -19.7814
LeftHand  -0.133072 1.664 3.92008
RightShoulder  -0.112366 -3.82561 25.9789
RightArm  -15.35 -11.2919 38.6248
RightForeArm  37.6773 77.8126 70.5199
RightHand  -0.577146 6.30403 -6.05502
LeftUpLeg  -13.3759 11.4002 -4.39401
LeftLeg  23.5928 5.61814 3.02995
LeftFoot  -10.7146 0.0856136 -3.78166
LeftToes  -1.93726e-010 2.42366e-011 2.16268e-013
1568
root  -45.7133 39.095 25.4717 -174.893 -53.62 170.305
RightUpLeg  -24.9322 -11.3943 -10.8545
RightLeg  40.5828 1.66223 1.25794
RightFoot  -6.89287 -0.28803 6.20285
RightToes  -1.33073e-015 0 -3.6325e-017
Spine  13.0957 -2.9553 -7.33669
Spine1  14.9782 -2.66797 -4.44179
HEad  -8.57373 21.2026 -11.1217
LeftShoulder1  0.936931 0.733867 -27.6905
LeftArm  -3.21407 -17.6868 -46.0787
LeftForeArm  0.746407 -59.6224 -19.5986
LeftHand  -0.16871 1.23892 4.64208
RightShoulder  -0.142369 -3.91731 26.0715
RightArm  -15.2656 -9.48407 38.8798
RightForeArm  33.053 77.3849 65.2727
RightHand  -0.549349 6.44107 -5.71793
LeftUpLeg  -11.2904 10.5241 -3.62179
LeftLeg  24.1527 4.89929 2.75224
LeftFoot  -12.2299 0.0454065 -3.56084
LeftToes  -1.93726e-010 2.42366e-011 2.16268e-013
1569
root  -46.3435 39.1012 25.0051 -175.726 -55.5927 170.34
RightUpLeg  -25.0798 -10.0841 -10.9442
RightLeg  33.8281 1.84401 1.08486
RightFoot  -6.85607 -0.278162 5.90519
RightToes  -1.33073e-015 0 -3.6325e-017
Spine  14.4433 -2.89038 -6.79968
Spine1  15.2374 -2.72204 -4.00588
HEad  -8.38991 18.9452 -13.1217
LeftShoulder1  0.908648 0.856859 -28.2238
LeftArm  -3.2118 -17.9815 -46.1197
LeftForeArm  0.900336 -59.1007 -19.1458
LeftHand  -0.141368 2.08569 4.63718
RightShoulder  -0.158613 -3.96531 26.0775
RightArm  -15.1927 -7.85353 38.7336
RightForeArm  29.025 76.908 60.7941
RightHand  -0.516627 6.36266 -5.43151
LeftUpLeg  -9.27106 9.25476 -3.10829
LeftLeg  24.5262 4.38235 2.53286
LeftFoot  -13.5335 0.0144774 -3.49265
LeftToes  -1.93726e-010 2.42366e-011 2.16268e-013
1570
root  -46.9941 39.048 24.4669 -175.938 -57.5148 169.931
RightUpLeg  -25.1527 -8.67163 -11.8529
RightLeg  27.2102 2.21108 1.00581
RightFoot  -6.76099 -0.277163 5.7745
RightToes  -1.33073e-015 0 -3.6325e-017
Spine  15.4475 -2.71892 -6.46265
Spine1  15.4848 -2.76117 -3.23719
HEad  -8.85402 16.5203 -15.0834
LeftShoulder1  0.897123 0.946673 -28.9868
LeftArm  -2.9357 -18.4035 -46.287
LeftForeArm  0.927994 -58.1958 -18.406
LeftHand  -0.0913699 2.19365 2.98301
RightShoulder  -0.0779967 -3.72517 25.121
RightArm  -15.5981 -7.21305 39.336
RightForeArm  26.8685 76.5953 58.3461
RightHand  -0.515721 6.35585 -5.42556
LeftUpLeg  -7.59213 8.62312 -2.74294
LeftLeg  25.1759 3.30692 2.04916
LeftFoot  -15.0627 -0.0185148 -3.34078
LeftToes  -1.93726e-010 2.42366e-011 2.16268e-013
1571
root  -47.6581 38.9589 23.8895 -175.831 -59.3623 169.246
RightUpLeg  -24.8237 -6.25027 -13.5427
RightLeg  20.6423 2.31769 0.820874
RightFoot  -6.37724 -0.300928 5.93415
RightToes  -1.33073e-015 0 -3.6325e-017
Spine  16.6691 -2.7685 -5.25389
Spine1  15.344 -2.42121 -4.07527
HEad  -9.58781 14.7123 -14.7197
LeftShoulder1  0.986484 0.637213 -28.2809
LeftArm  -3.37065 -18.0162 -47.1975
LeftForeArm  1.54517 -57.82 -18.0609
LeftHand  -0.0841958 2.91471 3.32142
RightShoulder  -0.155083 -3.95861 26.0817
RightArm  -15.1912 -5.98531 38.2211
RightForeArm  23.8686 76.1027 55.0477
RightHand  -0.507928 6.5332 -5.26402
LeftUpLeg  -6.02357 7.43198 -2.47226
LeftLeg  25.9368 2.66205 1.76102
LeftFoot  -16.5163 -0.0465358 -3.22801
LeftToes  -1.93726e-010 2.42366e-011 2.16268e-013
1572
root  -48.3907 38.8453 23.184 -175.014 -60.8972 168.016
RightUpLeg  -24.3926 -3.70076 -15.3731
RightLeg  14.7536 2.25865 0.0721586
RightFoot  -6.20024 -0.329472 6.39117
RightToes  -1.33073e-015 0 -3.6325e-017
Spine  16.825 -2.63304 -4.33476
Spine1  16.0337 -1.84021 -4.87634
HEad  -8.99777 13.0973 -14.148
LeftShoulder1  1.12591 0.119017 -27.2348
LeftArm  -3.16863 -17.8688 -47.6682
LeftForeArm  1.10974 -56.9803 -17.4812
LeftHand  -0.0887686 3.01517 3.66947
RightShoulder  -0.251851 -4.22912 26.8707
RightArm  -14.5515 -4.67733 37.3089
RightForeArm  19.1669 75.366 51.1479
RightHand  -0.626634 7.08721 -6.17246
LeftUpLeg  -4.32912 7.22601 -2.14642
LeftLeg  26.3571 1.23458 1.02019
LeftFoot  -17.8495 -0.061401 -2.95641
LeftToes  -1.93726e-010 2.42366e-011 2.16268e-013
1573
root  -49.1306 38.7302 22.3512 -173.193 -62.3694 166.119
RightUpLeg  -24.214 -4.84712 -15.5576
RightLeg  10.0703 5.77587 -1.3086
RightFoot  -5.88475 -0.353668 6.57064
RightToes  -1.33073e-015 0 -3.6325e-017
Spine  16.5695 -2.24379 -3.75247
Spine1  16.7694 -1.05679 -5.54153
HEad  -7.75421 10.7654 -12.592
LeftShoulder1  1.33303 -0.635313 -26.0947
LeftArm  -2.40139 -17.857 -48.3258
LeftForeArm  -0.19849 -55.4518 -16.5392
LeftHand  -0.119329 2.26064 4.04939
RightShoulder  -0.449217 -4.78195 28.0359
RightArm  -14.0331 -3.5693 36.1125
RightForeArm  17.1852 74.9452 49.1465
RightHand  -0.54189 6.59521 -5.5802
LeftUpLeg  -2.90365 5.99578 -2.15274
LeftLeg  26.5271 0.868756 0.824183
LeftFoot  -18.7006 -0.0675 -2.79861
LeftToes  -1.93726e-010 2.42366e-011 2.16268e-013
1574
root  -49.9183 38.5647 21.4398 -171.142 -63.897 163.938
RightUpLeg  -23.7449 -7.65476 -15.0823
RightLeg  7.09617 9.31413 -2.41353
RightFoot  -5.92091 -0.374893 7.07629
RightToes  -1.33073e-015 0 -3.6325e-017
Spine  17.1212 -1.81537 -5.44327
Spine1  16.5746 -1.77073 -2.8487
HEad  -7.73383 9.81091 -13.254
LeftShoulder1  1.06075 0.467781 -28.8201
LeftArm  -1.14185 -18.6922 -46.3786
LeftForeArm  -1.36687 -54.1511 -15.7982
LeftHand  -0.149194 1.67763 4.47044
RightShoulder  -0.0995666 -3.79426 25.439
RightArm  -13.7599 -3.74646 37.3899
RightForeArm  15.9253 74.3093 46.0682
RightHand  -0.50377 6.45508 -5.27991
LeftUpLeg  -1.37861 4.89109 -1.99902
LeftLeg  26.8496 0.300435 0.519363
LeftFoot  -19.7358 -0.0784371 -2.67101
LeftToes  -1.93726e-010 2.42366e-011 2.16268e-013
1575
root  -50.7935 38.3298 20.5069 -167.944 -65.7243 160.827
RightUpLeg  -23.2173 -9.74798 -15.7291
RightLeg  6.64536 10.1475 -2.18628
RightFoot  -6.38514 -0.399023 8.24387
RightToes  -1.33073e-015 0 -3.6325e-017
Spine  17.1901 -1.99962 -6.0345
Spine1  16.8176 -2.31693 -2.16023
HEad  -7.86472 9.36145 -13.6557
LeftShoulder1  0.859857 1.09085 -29.5167
LeftArm  -1.69468 -17.9113 -46.1953
LeftForeArm  0.286597 -53.9764 -15.5627
LeftHand  -0.140936 1.61078 4.13118
RightShoulder  0.0377396 -3.35589 24.394
RightArm  -12.7306 -3.34377 38.0646
RightForeArm  13.3225 73.401 42.6321
RightHand  -0.536875 7.64366 -5.13098
LeftUpLeg  -0.098777 2.77666 -2.2636
LeftLeg  27.2864 0.193533 0.461756
LeftFoot  -21.1611 -0.143881 -3.15386
LeftToes  -1.93726e-010 2.42366e-011 2.16268e-013
1576
root  -51.6235 38.0566 19.5621 -165.283 -67.504 158.459
RightUpLeg  -23.1944 -10.3568 -16.1364
RightLeg  8.70636 10.1346 -1.1508
RightFoot  -3.632 -0.639112 9.034
RightToes  -1.33073e-015 0 -3.6325e-017
Spine  17.2875 -2.27609 -4.65451
Spine1  17.5779 -2.16999 -2.83094
HEad  -7.06641 7.47034 -11.6921
LeftShoulder1  0.932223 0.82365 -28.6907
LeftArm  -1.78559 -17.583 -46.3242
LeftForeArm  0.956858 -53.1403 -15.0139
LeftHand  -0.171077 1.53653 4.99289
RightShoulder  0.0596265 -3.28281 24.5087
RightArm  -11.8297 -2.44045 38.218
RightForeArm  10.2506 72.2332 39.0005
RightHand  -0.584614 7.65664 -5.55514
LeftUpLeg  0.608045 1.26838 -1.7621
LeftLeg  28.4762 -0.341309 0.153216
LeftFoot  -22.6566 -0.211179 -3.50508
LeftToes  -1.93726e-010 2.42366e-011 2.16268e-013
1577
root  -52.2485 37.7525 18.6109 -165.321 -69.521 158.867
RightUpLeg  -24.0573 -9.09087 -15.777
RightLeg  11.9824 10.7292 0.19413
RightFoot  6.64618 -1.53491 9.9231
RightToes  -1.33073e-015 0 -3.6325e-017
Spine  19.5254 -2.69169 -1.48728
Spine1  16.77 -1.77845 -3.82133
HEad  -7.74409 5.69316 -10.8891
LeftShoulder1  1.021 0.493401 -27.7878
LeftArm  -2.13811 -17.6832 -46.5331
LeftForeArm  2.08034 -52.2483 -14.4201
LeftHand  -0.17267 1.67724 5.10459
RightShoulder  0.0129666 -3.43543 24.9334
RightArm  -11.4051 -1.70552 38.4679
RightForeArm  9.7409 71.1184 35.7617
RightHand  -0.525258 7.6634 -5.02693
LeftUpLeg  -0.0387826 0.149135 0.298733
LeftLeg  31.8747 -0.887436 -0.261292
LeftFoot  -23.6305 -0.379181 -4.79246
LeftToes  -1.93726e-010 2.42366e-011 2.16268e-013
1578
root  -52.7431 37.3598 17.6284 -170.116 -71.9665 163.749
RightUpLeg  -25.0842 -7.6517 -14.5541
RightLeg  17.5921 8.43247 2.37796
RightFoot  10.7415 -1.93963 10.2664
RightToes  -1.33073e-015 0 -3.6325e-017
Spine  23.8516 -3.48492 2.25865
Spine1  14.5485 -1.76416 -4.23606
HEad  -9.01064 3.75832 -9.75945
LeftShoulder1  1.1026 0.227842 -27.5315
LeftArm  -3.20079 -18.1561 -46.703
LeftForeArm  4.27192 -51.5137 -13.8553
LeftHand  -0.0878677 2.60851 3.25943
RightShoulder  0.0519819 -3.30821 24.4269
RightArm  -11.0949 -0.310037 38.882
RightForeArm  9.04581 69.822 32.6664
RightHand  -0.501022 7.47432 -4.87661
LeftUpLeg  -2.70521 -0.547896 4.36986
LeftLeg  39.516 -1.36161 -0.808727
LeftFoot  -23.1615 -0.706133 -8.35521
LeftToes  -1.93726e-010 2.42366e-011 2.16268e-013
